<svg xmlns="http://www.w3.org/2000/svg" viewBox="0 0 31.67 31.67"><defs><style>.cls-1{fill:#424242;opacity:0.7;}.cls-2{fill:none;stroke:#303030;stroke-miterlimit:10;stroke-width:0.63px;}.cls-3{fill:#f95428;}.cls-4{fill:#e03f20;}.cls-5{fill:#666;}.cls-6{fill:#fff;}.cls-7{fill:#e6e6e6;}.cls-8{fill:#f2f2f2;}.cls-9{fill:#2ba5f7;}</style></defs><title>fire truck on the mapAsset 70</title><g id="Layer_2" data-name="Layer 2"><g id="Layer_1-2" data-name="Layer 1"><circle class="cls-1" cx="15.84" cy="15.84" r="15.52"/><circle class="cls-2" cx="15.84" cy="15.84" r="15.52"/><polygon class="cls-3" points="20.46 5.97 15.93 6.32 15.93 8.39 20.46 8.74 20.46 5.97"/><rect class="cls-3" x="9.65" y="5.93" width="6.28" height="2.84"/><path class="cls-3" d="M11.36,22.91H17.5V11.12H5.73a1.22,1.22,0,0,0-1.22,1.22V22.91H5.66"/><path class="cls-4" d="M7.6,11.12H5.73a1.22,1.22,0,0,0-1.22,1.22V22.91H6.38V12.34A1.22,1.22,0,0,1,7.6,11.12Z"/><path class="cls-3" d="M25.73,22.91H27V12.07a1,1,0,0,0-.95-.95H17.5V22.91H20"/><circle class="cls-5" cx="8.51" cy="22.91" r="2.85"/><circle class="cls-5" cx="22.88" cy="22.91" r="2.85"/><circle class="cls-6" cx="22.88" cy="22.91" r="1.27"/><circle class="cls-6" cx="8.51" cy="22.91" r="1.27"/><polyline class="cls-4" points="18.77 22.91 18.97 22.91 18.97 11.12 17.5 11.12 17.5 22.91 17.89 22.91"/><rect class="cls-7" x="22.75" y="12.82" width="4.23" height="3.73"/><polygon class="cls-8" points="26.98 12.82 26.98 16.55 23.91 16.55 26.77 12.82 26.98 12.82"/><rect class="cls-7" x="18.81" y="12.82" width="2.53" height="3.73"/><rect class="cls-9" x="22.75" y="9.57" width="2.05" height="1.55"/><rect class="cls-7" x="6.4" y="12.82" width="9.18" height="3.73"/><polygon class="cls-8" points="15.59 12.82 15.59 16.55 12.52 16.55 15.39 12.82 15.59 12.82"/><polygon class="cls-8" points="12.5 12.82 12.5 16.55 9.43 16.55 12.29 12.82 12.5 12.82"/><polygon class="cls-8" points="9.48 12.82 9.48 16.55 6.41 16.55 9.28 12.82 9.48 12.82"/><rect class="cls-5" x="10.82" y="8.78" width="3.86" height="2.35"/><path class="cls-9" d="M26.87,6.56a5.56,5.56,0,0,0-4.7.64,6.35,6.35,0,0,1,3.46,1.38,1.19,1.19,0,0,0,1.73-.14l0,0A1.19,1.19,0,0,0,26.87,6.56Z"/><path d="M8.54,19.64a3.26,3.26,0,0,0-3.23,2.85H4.94V12.33a.82.82,0,0,1,.81-.81h.83a.41.41,0,1,0,0-.81H5.76a1.63,1.63,0,0,0-1.63,1.63V22.49H3.82a.41.41,0,1,0,0,.81H5.31a3.26,3.26,0,1,0,3.23-3.67Zm0,5.7A2.45,2.45,0,0,1,6.1,22.9h0a2.44,2.44,0,1,1,2.44,2.44Z"/><path d="M22.9,21.22a1.68,1.68,0,1,0,1.68,1.68A1.68,1.68,0,0,0,22.9,21.22Zm0,2.55a.87.87,0,1,1,.87-.87A.87.87,0,0,1,22.9,23.77Z"/><path d="M8.54,21.22a1.68,1.68,0,1,0,1.68,1.68A1.68,1.68,0,0,0,8.54,21.22Zm0,2.55a.87.87,0,1,1,.87-.87A.87.87,0,0,1,8.54,23.77Z"/><path d="M27.85,22.49h-.44V12.06a1.36,1.36,0,0,0-1.35-1.35h-.82V9.56a.41.41,0,0,0-.41-.41H22.78a.41.41,0,0,0-.41.41V10.7H15.11V9.17H16a.41.41,0,0,0,.4-.35l4.09.32h0a.41.41,0,0,0,.41-.41V6a.41.41,0,0,0-.44-.41l-4.09.32a.41.41,0,0,0-.4-.35H14.08a.41.41,0,0,0,0,.81h1.48v2H10.08v-2h2.69a.41.41,0,0,0,0-.81H9.68a.41.41,0,0,0-.41.41V8.76a.41.41,0,0,0,.41.41h.77V10.7H8a.41.41,0,0,0,0,.81h9.14v8a.41.41,0,0,0,.81,0v-8h8.12a.54.54,0,0,1,.54.54v.35H22.77a.41.41,0,0,0-.41.41v3.73a.41.41,0,0,0,.41.41H26.6v5.55h-.46a3.26,3.26,0,0,0-6.46,0H17.94V21a.41.41,0,0,0-.81,0v1.5H12.61a.41.41,0,0,0,0,.81h7.06a3.26,3.26,0,0,0,6.46,0h1.72a.41.41,0,0,0,0-.81ZM20.08,8.29,16.37,8V6.68l3.71-.29ZM11.26,10.7V9.17h3V10.7Zm11.93,0V10h1.24v.74Zm0,5.43V13.22H26.6v2.92Zm-.28,9.21a2.45,2.45,0,0,1-2.44-2.44h0a2.44,2.44,0,1,1,2.44,2.45Z"/><path d="M21.36,16.95a.41.41,0,0,0,.41-.41V12.81a.41.41,0,0,0-.41-.41H18.84a.41.41,0,0,0-.41.41v3.73a.41.41,0,0,0,.41.41Zm-2.12-3.73H21v2.92H19.24Z"/><path d="M26.17,19.09v-.92a.41.41,0,0,0-.81,0v.92a.41.41,0,0,0,.81,0Z"/><path d="M6,12.81v3.73a.41.41,0,0,0,.41.41h9.18a.41.41,0,0,0,.41-.41V12.81a.41.41,0,0,0-.41-.41H6.43A.41.41,0,0,0,6,12.81Zm3.87,3.32V13.22h2.26v2.92Zm5.31,0H13V13.22H15.2v2.92ZM6.83,13.22H9.07v2.92H6.83Z"/><path d="M22.18,7.59a6,6,0,0,1,3.21,1.28,1.63,1.63,0,0,0,1.08.41h.14a1.57,1.57,0,0,0,1.1-.59l0,0A1.59,1.59,0,0,0,27,6.17a6,6,0,0,0-5,.66.41.41,0,0,0,.17.76Zm4.58-.66h0a.77.77,0,0,1,.48.52.77.77,0,0,1-.14.7l0,0a.76.76,0,0,1-.54.29.8.8,0,0,1-.6-.2A6,6,0,0,0,23.55,7,4.6,4.6,0,0,1,26.76,6.93Z"/></g></g></svg>