<svg xmlns="http://www.w3.org/2000/svg" viewBox="0 0 31.84 31.67"><defs><style>.cls-1{fill:#424242;opacity:0.7;}.cls-2{fill:none;stroke:#303030;stroke-miterlimit:10;stroke-width:0.63px;}.cls-3{fill:#ffb446;}.cls-4{fill:#ffdc64;}.cls-5{fill:#fff;}.cls-6{fill:#1c1c1c;}</style></defs><title>fire on the mapAsset 69</title><g id="Layer_2" data-name="Layer 2"><g id="Layer_1-2" data-name="Layer 1"><circle class="cls-1" cx="15.52" cy="15.84" r="15.52"/><circle class="cls-2" cx="16.01" cy="15.84" r="15.52"/><g id="Layer_2-2" data-name="Layer 2"><g id="Layer_1-2-2" data-name="Layer 1-2"><path class="cls-3" d="M8.31,20.46a7.46,7.46,0,0,0,7.46,7.46h0a7.46,7.46,0,0,0,7.46-7.45h0c0-4.14-2.07-7.46-.68-10.36,0,0-2.22.41-3.46,3.73a10.51,10.51,0,0,1-2.41-9.94s-4.22,1.64-3.78,7c.38,4.63-.44,5.39-.44,5.39a6.37,6.37,0,0,0-2.91-5.39C10.38,15.49,8.31,16.73,8.31,20.46Z"/><path class="cls-4" d="M21.15,22.23a5.54,5.54,0,0,1-5.48,5.69,4.75,4.75,0,0,1-4.86-5.18,12.64,12.64,0,0,1,2.69-5.52l1.07.65a21.66,21.66,0,0,1,1.21-6.11C16.58,15.44,21.15,16.38,21.15,22.23Z"/><path class="cls-5" d="M13.69,19.63c-.42,2.49-1.24,3.39-1.24,5a3.45,3.45,0,0,0,3.31,3.31h0a3.33,3.33,0,0,0,3.32-3.34h0a13.58,13.58,0,0,0-2.9-8.25,7.37,7.37,0,0,1-.82,4.56A4.26,4.26,0,0,0,13.69,19.63Z"/><path class="cls-6" d="M23,15.77c-.46-2.08-.85-3.88-.07-5.5a.39.39,0,0,0-.42-.55c-.09,0-2.18.44-3.51,3.38a11.09,11.09,0,0,1-1.38-2.23A9.47,9.47,0,0,1,17,4a.39.39,0,0,0-.5-.47,6.53,6.53,0,0,0-2.19,1.6A7.42,7.42,0,0,0,12.51,11a21.26,21.26,0,0,1,.05,3.38A6.76,6.76,0,0,0,11.3,12,6.43,6.43,0,0,0,9.73,10.6a.39.39,0,0,0-.58.41,9.84,9.84,0,0,1-.49,5.53,11.91,11.91,0,0,0-.74,3.93,7.85,7.85,0,0,0,15.69,0A21.66,21.66,0,0,0,23,15.77Zm-4.3,11.14a3.67,3.67,0,0,0,.82-2.31A14,14,0,0,0,18,18.42a12,12,0,0,0-1.5-2.36.39.39,0,0,0-.58.51h0a13.25,13.25,0,0,1,2.79,8,2.93,2.93,0,0,1-2.93,2.92,3,3,0,0,1-2.91-2.92,3.85,3.85,0,0,1,.27-1.52.39.39,0,0,0-.72-.27,4.66,4.66,0,0,0-.35,1.79A3.7,3.7,0,0,0,13,27a7.08,7.08,0,0,1-4.27-6.49,11,11,0,0,1,.71-3.69,10.72,10.72,0,0,0,.66-5,6,6,0,0,1,2,4.5.39.39,0,0,0,.66.27c.16-.15.94-1.13.56-5.7a6.6,6.6,0,0,1,1.6-5.21,6.3,6.3,0,0,1,1.2-1,10.42,10.42,0,0,0,.8,6.54,10.94,10.94,0,0,0,1.93,2.91.39.39,0,0,0,.64-.14,5.82,5.82,0,0,1,2.43-3.17,11,11,0,0,0,.33,5.15,20.93,20.93,0,0,1,.63,4.52A7.08,7.08,0,0,1,18.66,26.91Z"/><path class="cls-6" d="M15.33,20.22a2.32,2.32,0,0,0-1.64-1,.39.39,0,0,0-.39.38h0a5.19,5.19,0,0,1-.21,1.55.39.39,0,0,0,.26.49h0a.39.39,0,0,0,.48-.26h0a5.7,5.7,0,0,0,.23-1.25h0a2.76,2.76,0,0,1,.94.93.39.39,0,0,0,.54.11l.06-.05a3.83,3.83,0,0,0,.85-1.85.38.38,0,0,0-.29-.44.39.39,0,0,0-.46.27A4.23,4.23,0,0,1,15.33,20.22Z"/></g></g></g></g></svg>