<svg xmlns="http://www.w3.org/2000/svg" viewBox="0 0 31.67 31.67"><defs><style>.cls-1{fill:#424242;opacity:0.7;}.cls-2{fill:none;stroke:#303030;stroke-width:0.63px;}.cls-2,.cls-3,.cls-4,.cls-5,.cls-6,.cls-7{stroke-miterlimit:10;}.cls-3{fill:#828282;}.cls-3,.cls-4,.cls-5,.cls-6,.cls-7{stroke:#000;stroke-width:0.52px;}.cls-4{fill:#a4a4a5;}.cls-5{fill:#5abae0;}.cls-6{fill:#ddc072;}.cls-7{fill:#26469e;}</style></defs><title>patrolman on the mapAsset 71</title><g id="Layer_2" data-name="Layer 2"><g id="Layer_1-2" data-name="Layer 1"><circle class="cls-1" cx="15.84" cy="15.84" r="15.52"/><circle class="cls-2" cx="15.84" cy="15.84" r="15.52"/><path class="cls-3" d="M19.86,10l1.41-.53a1,1,0,0,1-.11.37,2.73,2.73,0,0,0-.1.74s-.13,1.31-1.1,1.12A5.58,5.58,0,0,0,19.86,10Z"/><path class="cls-3" d="M12.1,10l-1.41-.53a1,1,0,0,0,.11.37,2.73,2.73,0,0,1,.1.74S11,11.85,12,11.66A5.58,5.58,0,0,1,12.1,10Z"/><path class="cls-4" d="M14.91,28.13,13.29,28a12.11,12.11,0,0,1-3.85-.92,5.34,5.34,0,0,1-2.3-2,4.13,4.13,0,0,1-.61-1.9c-.09-.9-.11-1.8-.14-2.7a.58.58,0,0,1,.18-.39,11.4,11.4,0,0,1,5.79-2.91c.16,0,.19.05.24.16L14,20.69l.12.27,1.95-2.74L18,21l.26-.6,1.23-2.92c.05-.13.1-.2.26-.16A11.33,11.33,0,0,1,25.1,20.1a.53.53,0,0,1,.18.41,17.3,17.3,0,0,1-.18,2.92A4.68,4.68,0,0,1,22.3,27a9.7,9.7,0,0,1-3.08.85c-.72.09-1.45.14-2.17.21l-.21,0Z"/><path class="cls-5" d="M16.64,3.54c.46.1.93.16,1.38.3A7,7,0,0,1,21.51,6a2.55,2.55,0,0,1,.7,1.86,4.19,4.19,0,0,1-.13.56,12.89,12.89,0,0,0-11.91,0A1.44,1.44,0,0,1,10,7.32a3.07,3.07,0,0,1,.82-1.47,7.48,7.48,0,0,1,4.49-2.26l.23,0Zm-.53.23a1.3,1.3,0,1,0,1.3,1.28A1.29,1.29,0,0,0,16.1,3.77Z"/><path class="cls-6" d="M19.89,10l.17,1.66c.38.13.6,0,1-.79a.32.32,0,0,1,.27.34,6.86,6.86,0,0,1,0,1.19.94.94,0,0,1-.73.81c-.07,0-.14.14-.16.22A6.28,6.28,0,0,1,19,16a3.8,3.8,0,0,1-3.11,1.33,3.9,3.9,0,0,1-2.68-1.39,6.17,6.17,0,0,1-1.36-2.51.3.3,0,0,0-.24-.24,1,1,0,0,1-.69-.87,5.86,5.86,0,0,1,0-1.07.73.73,0,0,1,.19-.36c.14.42.26.82.82.81L12,9.9a13,13,0,0,0,3.94.65A13.32,13.32,0,0,0,19.89,10Z"/><path class="cls-7" d="M10.4,8.78a12.46,12.46,0,0,1,11.39,0,13.14,13.14,0,0,1-5.68,1.39A13.18,13.18,0,0,1,10.4,8.78Z"/></g></g></svg>